<?xml version="1.0" encoding="UTF-8"?><svg id="b" xmlns="http://www.w3.org/2000/svg" xmlns:xlink="http://www.w3.org/1999/xlink" viewBox="0 0 1494.13 1494.13"><defs><style>.e{fill:none;}.f{fill:#fff;}.g{fill:#71be4d;}.h{fill:#b34f9d;}.i{clip-path:url(#d);}</style><clipPath id="d"><circle class="e" cx="747.06" cy="747.06" r="747.06"/></clipPath></defs><g id="c"><g class="i"><g><path class="g" d="m-1.87-13.19c-2.71,2.54-5.41,5.08-8.08,7.64-74.77,71.58-131.69,146.73-174.28,219.95v31.5c29.98-58.05,69.06-117.91,119.79-177.06C-40.49,40.93-14.07,13.49,14.63-13.19H-1.87Z"/><path class="g" d="m30.44-13.19C-22.64,36.06-67.4,87.71-103.66,139.53c-33.94,48.57-60.21,96.53-80.57,142.76v46.69c13.74-40.28,32.1-82.59,56.71-126.29C-87.04,130.9-29.79,56.66,45.68-13.19h-15.24Z"/><path class="h" d="m14.63-13.19C-14.07,13.49-40.49,40.93-64.44,68.83c-50.73,59.16-89.82,119.01-119.79,177.06v36.39c20.36-46.23,46.63-94.19,80.57-142.76C-67.4,87.71-22.64,36.06,30.44-13.19h-15.81Z"/><path class="g" d="m60.67-13.19C-35.16,75.07-98.79,169.15-137.01,255.17c-25.12,56.62-39.29,109.18-47.22,156.67v736.59c22.11-17.76,23.35-57.7,22.86-101.28-1.23-107.07-4.73-219.14,1.07-321.48,4.98-87.77.04-166.13-.97-249.53-.6-50.15,4.11-110.85,27.57-181.35C-104.95,208.56-48.1,108.32,50.07,11.16c8.29-8.2,16.87-16.31,25.67-24.35h-15.07Z"/><path class="h" d="m45.68-13.19C-29.79,56.66-87.04,130.9-127.52,202.69c-24.61,43.7-42.97,86.01-56.71,126.29v82.86c7.93-47.49,22.1-100.05,47.22-156.67C-98.79,169.15-35.16,75.07,60.67-13.19h-14.99Z"/><path class="g" d="m-.35,104.55C28.31,65,63.91,25.24,106.09-13.19h-15.13C64.28,11.08,40.02,35.98,18.38,61.2-62.12,155.04-102.98,246.18-119.19,320.51c-12.78,58.72-9.85,107.02-4.68,146.1,8.82,66.19,10.81,134.39.25,218.35-13.24,105.31-18.56,228.1-9.24,352.61,4.22,56.01,11.38,105.49-4.56,139.31-6.62,14.01-24.32,21.46-46.81,21v36.53c2.53.83,5.05,1.62,7.56,2.33,41.85,11.92,76.86-12.37,80.3-47.84,4.65-48.47-7.93-107.97-14.15-174.75-13.09-140.72,5.33-272.81,28.82-379.81,17.62-80.12,19.45-140.22,2.9-190.56-9.47-28.8-19.51-64.94-15.97-111.39C-90.07,271.35-63.45,191.71-.35,104.55Z"/><path class="h" d="m18.38,61.2C40.02,35.98,64.28,11.08,90.95-13.19h-15.21c-8.8,8.04-17.38,16.15-25.67,24.35C-48.1,108.32-104.95,208.56-133.7,294.79c-23.46,70.5-28.16,131.19-27.57,181.35,1.01,83.4,5.95,161.75.97,249.53-5.8,102.35-2.3,214.41-1.07,321.48.49,43.58-.75,83.52-22.86,101.28v49.46c22.49.46,40.19-7,46.81-21,15.93-33.82,8.77-83.31,4.56-139.31-9.32-124.51-4.01-247.3,9.24-352.61,10.57-83.96,8.58-152.16-.25-218.35-5.17-39.08-8.1-87.39,4.68-146.1C-102.98,246.18-62.12,155.04,18.38,61.2Z"/><path class="g" d="m37.45,372.77c-18.27-13.89-43.1-27.69-56.26-52.92-17.06-32.87-14.99-87.75,16.63-154.35C24.63,109.12,70.4,47.06,136.17-13.19h-15.12C65.88,37.24,23.24,89.51-6.87,139.61c-46.7,77.77-60.69,144.82-54.35,191.93,4.75,34.89,22.21,59.49,35.96,79.61,24.66,36.12,18.38,91.22-7.23,167.39-16.71,49.66-35.57,107.17-47.91,173.07-13.46,71.84-17.82,149.21-11.92,227.72,5.79,76.92,22.04,147.4,28.13,208.73,4.69,47.58-12.52,89.95-49.39,89.99-21.08,0-44.98-6.15-70.65-17.44v19.89c52.77,27.1,99.52,38.34,127.96,26.11,76.89-33.39-14.5-202.69-19.4-370.92-2.44-85.48,9.54-167.59,31.4-241.46,19.79-66.81,46.24-123.48,69.14-171.74,34.22-72.02,44.23-125.7,12.57-149.71Z"/><path class="h" d="m121.05-13.19h-14.97C63.91,25.24,28.31,65-.35,104.55c-63.1,87.16-89.73,166.8-94.43,227.85-3.54,46.45,6.5,82.59,15.97,111.39,16.55,50.35,14.72,110.45-2.9,190.56-23.48,107-41.91,239.1-28.82,379.81,6.23,66.78,18.8,126.28,14.15,174.75-3.45,35.46-38.45,59.76-80.3,47.84-2.5-.71-5.02-1.5-7.56-2.33v26.18c25.67,11.29,49.57,17.44,70.65,17.44,36.87-.05,54.08-42.41,49.39-89.99-6.09-61.33-22.34-131.81-28.13-208.73-5.91-78.51-1.54-155.89,11.92-227.72,12.33-65.89,31.2-123.41,47.91-173.07C-6.88,502.37-.6,447.27-25.26,411.15c-13.75-20.13-31.21-44.73-35.96-79.61-6.34-47.11,7.65-114.16,54.35-191.93C23.24,89.51,65.88,37.24,121.05-13.19Z"/><path class="g" d="m189.46,296.14c-27.74-9.43-63.34-10.76-97.12-21.27-33-10.31-61.16-41.39-55.38-85.03,3.96-29.82,18.77-65.15,44.36-103.5,21.61-32.37,50.46-66.04,86.58-99.53h-16.04c-27.13,24.97-50.64,50.24-70.5,75.23C47.19,105,24.65,145.89,12.72,182.07c-17.96,54.76-6.12,98.37,19.68,117.87,23.23,17.46,53.73,22.78,76.96,33.08,36.18,16.21,23.39,70.22-19.69,137.9-29.22,45.93-63.31,100.31-91.3,166.25-31.24,73.68-52.73,158.3-56.35,248.97-3.68,93.22,12.69,184.99,33.92,268.97,18.37,72.71,42.34,135.23,17.56,168.85-20.93,28.26-98.78,16.83-177.73-25.95v15.96c22.96,12.98,45.92,24.15,68.67,33.29,75.39,30.21,144.43,19.44,150.42-15.42,8.73-50.99-25.61-120.42-47.87-205.14-24.63-93.89-36.47-194.65-24.19-292.84,11.77-93.62,43.72-178.09,84.3-249.29,36.06-63.26,77.23-113.98,112.36-156.78,28.99-35.33,53.42-63.6,60.3-88.39,5.05-18.27-8.26-35.78-30.31-43.28Z"/><path class="h" d="m109.36,333.02c-23.23-10.3-53.74-15.62-76.96-33.08-25.8-19.5-37.64-63.12-19.68-117.87,11.93-36.18,34.47-77.06,68.64-120.02,19.85-25,43.37-50.27,70.5-75.23h-15.69C70.4,47.06,24.63,109.12-2.18,165.5c-31.62,66.6-33.69,121.48-16.63,154.35,13.16,25.23,37.99,39.03,56.26,52.92,31.67,24.01,21.65,77.69-12.57,149.71-22.9,48.26-49.35,104.93-69.14,171.74-21.86,73.87-33.84,155.98-31.4,241.46,4.9,168.23,96.28,337.54,19.4,370.92-28.45,12.23-75.19.99-127.96-26.11v17.53c78.95,42.78,156.8,54.22,177.73,25.95,24.78-33.62.81-96.14-17.56-168.85-21.23-83.98-37.6-175.75-33.92-268.97,3.63-90.67,25.11-175.29,56.35-248.97,27.99-65.95,62.08-120.32,91.3-166.25,43.08-67.68,55.87-121.7,19.69-137.9Z"/><path class="g" d="m364.48,244.42c-31.49-14.55-77.74-18.23-128.24-22.2-50.91-4.01-105.34-8.58-125.59-38.43-11.11-16.52-11.6-41.64-1.61-69.51,12.55-34.99,39.66-74.73,80.42-115.84,3.84-3.88,7.81-7.75,11.87-11.61h-16.98c-42.91,40.2-74.1,80.08-93.53,116.83-17.54,33.15-24.9,63.06-21.02,86.26,11.02,64.59,137.96,51.72,205.75,75.84,23.44,8.34,35.42,28.03,27.62,46.32-10.54,24.75-39.05,51.07-72.62,83.71-40.22,39.11-87.18,85.18-130.47,144.1-48.91,66.62-91.14,148.23-112.22,242.22-22.46,100.41-18.01,208.18,6.91,310.71,23.36,95.84,64.49,174.72,72.99,239.11,5.62,42.98-45.69,73.07-113.56,55.81-44.14-11.26-90.99-31.43-138.42-59.08v12.67c18.35,10.84,36.75,20.78,55.11,29.71,54.84,26.69,106.01,43.41,149.29,47.69,33.7,3.34,63.15-3.69,74.16-19.75,11.78-17.16,7.72-43.87-1.55-73.28-23.86-75.4-69.91-164.78-91.49-270.43-22.28-109.56-17.1-221.77,16.05-321.45,30.53-91.69,81.77-167.96,137.1-228.43,48.89-53.38,100.04-94.27,144.28-129.47,37.64-29.95,70.11-54.5,85.42-79.41,11.51-18.75,3.57-41.35-19.65-52.11Z"/><path class="h" d="m275.55,265.74c-67.78-24.12-194.73-11.25-205.75-75.84-3.89-23.2,3.48-53.12,21.02-86.26,19.43-36.75,50.61-76.63,93.53-116.83h-16.45c-36.12,33.48-64.98,67.16-86.58,99.53-25.59,38.35-40.4,73.68-44.36,103.5-5.78,43.64,22.39,74.72,55.38,85.03,33.77,10.51,69.38,11.84,97.12,21.27,22.05,7.5,35.36,25.01,30.31,43.28-6.88,24.79-31.31,53.06-60.3,88.39-35.13,42.8-76.29,93.52-112.36,156.78-40.59,71.19-72.53,155.67-84.3,249.29-12.28,98.19-.43,198.95,24.19,292.84,22.26,84.71,56.59,154.15,47.87,205.14-5.99,34.86-75.03,45.63-150.42,15.42-22.75-9.14-45.71-20.31-68.67-33.29v14.67c47.43,27.65,94.28,47.83,138.42,59.08,67.87,17.26,119.19-12.84,113.56-55.81-8.5-64.39-49.63-143.27-72.99-239.11-24.92-102.54-29.37-210.31-6.91-310.71,21.08-93.99,63.32-175.6,112.22-242.22,43.28-58.92,90.25-104.99,130.47-144.1,33.57-32.64,62.07-58.96,72.62-83.71,7.8-18.29-4.18-37.98-27.62-46.32Z"/><path class="g" d="m535.97,232.84c-53.95-56.16-206.78-34.81-322.21-72.51-42.87-14.1-57.12-70.61-14.28-129.64,10.48-14.42,23.12-29.11,37.84-43.88h-18.38c-10.32,10.05-19.81,20.11-28.44,30.12-58.14,67.45-66.14,134.23-31.64,156.35,81.98,52.27,227.07,16.03,293.65,60.18,37.75,25.15-16.44,83.69-92.56,134.53-47.06,31.44-100.59,67.16-153.1,114.35-59.35,53.38-117.36,122.4-156.48,209.3C7.21,787.77-8.95,901.45,8.24,1016.03c17.15,113.69,65.92,213.55,102.69,298.55,27.33,63.32,20.09,122.5-29.88,126.86-37.24,3.24-85.33-6.86-138.72-26.53-41.3-15.26-83.92-35.92-126.56-61.36v11.54c.8.48,1.58.97,2.38,1.45,66.83,39.71,133.04,68.23,193.73,83.89,50.43,12.98,94.7,16.75,124.22,6.76,43.11-14.67,24.42-83.82-12.56-157.41-47.03-93.6-96.13-203.22-106.68-322.79-10.31-117.33,16.91-229.44,68.54-319.56,45.94-80.1,108.06-140.65,168.87-186.67,54.06-40.88,108.21-71.94,156.94-100.13,83.02-48,157.02-104.11,124.76-137.79Z"/><path class="h" d="m452.5,233.46c-66.58-44.14-211.67-7.91-293.65-60.18-34.5-22.12-26.5-88.9,31.64-156.35,8.63-10.01,18.12-20.07,28.44-30.12h-17.61c-4.06,3.87-8.02,7.74-11.87,11.61-40.76,41.11-67.88,80.85-80.42,115.84-9.99,27.87-9.51,52.99,1.61,69.51,20.25,29.85,74.68,34.43,125.59,38.43,50.51,3.97,96.75,7.65,128.24,22.2,23.22,10.76,31.16,33.36,19.65,52.11-15.31,24.91-47.78,49.46-85.42,79.41-44.24,35.2-95.38,76.09-144.28,129.47-55.33,60.46-106.57,136.74-137.1,228.43-33.15,99.67-38.33,211.88-16.05,321.45,21.58,105.65,67.63,195.03,91.49,270.43,9.27,29.4,13.33,56.12,1.55,73.28-11.01,16.06-40.46,23.09-74.16,19.75-43.28-4.28-94.45-21.01-149.29-47.69-18.36-8.92-36.76-18.87-55.11-29.71v12.24c42.65,25.44,85.27,46.1,126.56,61.36,53.39,19.66,101.47,29.76,138.72,26.53,49.97-4.36,57.21-63.54,29.88-126.86-36.77-85-85.54-184.86-102.69-298.55-17.19-114.59-1.03-228.27,42.12-324.4,39.12-86.9,97.14-155.93,156.48-209.3,52.51-47.19,106.03-82.91,153.1-114.35,76.12-50.84,130.31-109.38,92.56-134.53Z"/><path class="g" d="m677.65,257.39c-7.5-68.32-178.43-98.65-337.83-122.87-64.79-9.89-118.38-44.08-101.6-89.03,6.94-18.53,20.08-38.33,38.66-58.68h-20.33c-17.41,18.13-31.14,36-40.92,53.21-29,51.13,5.54,96.28,58.8,106.81,140.31,27.69,303.97,29.35,337.3,94.61,22.41,44.33-71.84,94.22-160.97,140.65-49.36,25.72-102.64,52.96-156.33,87.88-59.92,38.98-123.34,90.53-173.88,162.38-57.83,82.26-95.2,189.95-92.78,307.6,2.61,123.06,49.46,241.25,104.21,342.51,45.12,83.4,89.58,157.1,53.08,184.86-20.37,15.42-60.44,17.97-106.75,11.14-57.52-8.52-123.12-30.23-191.41-63.68-24.44-11.98-48.15-25.34-71.13-39.76v10.9c45.1,27.31,91.85,51.01,139.83,69.95,68.45,27,132.11,42.33,185.18,44.08,41.38,1.38,76.25-8.09,87.28-26.96,25.1-43.06-38.99-116.82-90.46-209.38-60-107.92-102.5-233.07-96.52-357.17,5.64-115.59,51.49-216.47,112.95-289.65,52.76-62.77,115.06-105.36,172.15-137.97,51.81-29.57,103.05-54.05,152.15-78.26,94.29-46.47,205.16-87.63,199.32-143.19Z"/><path class="h" d="m611.74,241.45c-33.33-65.26-196.99-66.92-337.3-94.61-53.27-10.53-87.81-55.69-58.8-106.81,9.78-17.21,23.51-35.08,40.92-53.21h-19.24c-14.72,14.76-27.36,29.45-37.84,43.88-42.84,59.04-28.59,115.55,14.28,129.64,115.44,37.7,268.26,16.35,322.21,72.51,32.26,33.69-41.74,89.79-124.76,137.79-48.73,28.19-102.88,59.25-156.94,100.13-60.82,46.02-122.94,106.57-168.87,186.67-51.63,90.12-78.85,202.24-68.54,319.56,10.55,119.57,59.65,229.19,106.68,322.79,36.98,73.59,55.67,142.74,12.56,157.41-29.52,9.99-73.79,6.22-124.22-6.76-60.69-15.66-126.9-44.18-193.73-83.89-.8-.48-1.58-.97-2.38-1.45v9.92c22.98,14.42,46.69,27.78,71.13,39.76,68.29,33.45,133.88,55.16,191.41,63.68,46.31,6.83,86.38,4.28,106.75-11.14,36.5-27.76-7.96-101.45-53.08-184.86-54.75-101.26-101.6-219.45-104.21-342.51-2.41-117.64,34.96-225.34,92.78-307.6,50.54-71.85,113.97-123.41,173.88-162.38,53.69-34.92,106.98-62.16,156.33-87.88,89.13-46.43,183.38-96.32,160.97-140.65Z"/><path class="g" d="m726.62,200.93c-62.61-40.79-153.28-64.93-247.3-82.14-86.01-15.76-171.96-28.92-179.75-71.09-3.16-17.34,5.21-38.61,22.14-60.89h-23.18c-18.38,21.65-29.67,42.44-32.07,60.98-5.34,41.95,66.11,65.36,142.14,77.03,173.87,26.71,341.78,89.2,324.03,153.67-17.96,64.06-139.47,97.75-237.73,146.15-48.09,23.7-96.47,46.47-145.35,71.45-52.95,27.07-112.25,61.1-165.08,114.5-62.69,63.43-114.79,155.75-127.95,267.14-14.43,122.79,22.15,252.97,85.13,366.49,56,100.86,132.03,174.75,123.91,231.1-3.08,20.93-30.67,37.33-66.71,40.65-47.54,4.42-108.31-4.99-175.71-25.68-70.5-21.69-140.36-54.27-207.36-94.57v9.72c88.91,52.92,182.02,92.62,272.84,113.19,65.33,14.77,122.62,18.78,163.76,8.88,30.66-7.41,49.41-29.47,45.82-52.27-4.6-29.02-28.28-61.86-55.64-100.43-31.55-44.46-66.99-93.66-97.42-149.65-64.11-117.9-93.76-251.09-71.62-370.51,19.61-105.42,75.65-188.1,137.58-241.54,94.49-81.41,200.72-112.66,291.44-159.88,100.67-52.41,228.29-83.31,274.09-150.6,18.31-27.02-1.88-70.33-50-101.69Z"/><path class="h" d="m408.6,124.82c-76.03-11.67-147.48-35.08-142.14-77.03,2.4-18.54,13.69-39.33,32.07-60.98h-21.64c-18.58,20.34-31.72,40.14-38.66,58.68-16.78,44.95,36.81,79.15,101.6,89.03,159.4,24.22,330.33,54.55,337.83,122.87,5.84,55.56-105.03,96.72-199.32,143.19-49.1,24.2-100.34,48.68-152.15,78.26-57.09,32.61-119.38,75.21-172.15,137.97-61.46,73.18-107.31,174.06-112.95,289.65-5.98,124.1,36.52,249.24,96.52,357.17,51.46,92.56,115.56,166.31,90.46,209.38-11.03,18.87-45.9,28.33-87.28,26.96-53.07-1.74-116.73-17.08-185.18-44.08-47.98-18.94-94.73-42.64-139.83-69.95v9.79c67,40.3,136.86,72.88,207.36,94.57,67.4,20.69,128.18,30.1,175.71,25.68,36.04-3.32,63.63-19.72,66.71-40.65,8.12-56.35-67.91-130.24-123.91-231.1-62.98-113.52-99.55-243.7-85.13-366.49,13.16-111.39,65.26-203.71,127.95-267.14,52.83-53.41,112.13-87.44,165.08-114.5,48.88-24.98,97.26-47.75,145.35-71.45,98.26-48.4,219.77-82.09,237.73-146.15,17.75-64.47-150.16-126.96-324.03-153.67Z"/><path class="g" d="m253.47,1365.02c31.8,41.6,60.88,76.45,73.28,108.51,9.56,24.81.3,50.97-25.26,61.96-.98.42-1.97.82-2.98,1.22h52.94c15.74-15.27,14.47-41.38.62-65.84-19.41-34.3-53.36-71.08-88.92-115.32-39.48-49.04-78.9-103.61-109.74-164.43-62.28-122.87-77.87-256.2-43.85-364.23,28.43-89.99,86.69-152.5,143.55-186.28,84.65-50.2,171.99-67.93,249.46-119.61,99.03-66.05,234.43-107,332.91-167.67,36.88-22.79,48.3-68.35,17.09-107.14-43.05-53.45-130.61-96.55-231.87-126.25-100.09-29.32-201.54-34.53-243.45-76.44-13.42-13.46-14.72-34.93-4.27-56.68h-26.48c-14.19,22.32-18.37,43.88-9.73,59.21,24.29,42.92,119.59,49.26,213.73,71.06,98.77,22.86,189.1,56.52,243.02,104.42,40.08,35.64,44.73,81.63,16.92,106.5-73.52,65.52-205.34,99.17-306.42,157.57-84.51,48.82-180.61,72.74-270.23,137.87-59.76,43.5-117.7,116.07-142.4,214.2-28.73,114.36-6.24,248.53,57.47,369.56,30.94,58.72,68.71,110.84,104.62,157.81Z"/><path class="g" d="m-184.23,1414.98v9.52c50.48,29.57,102.95,55.51,156.53,76.68,36.42,14.38,72.31,26.24,107.12,35.52h43.59c-100.13-19.33-206.1-62.15-307.24-121.72Z"/><path class="h" d="m793.51,221.51c-53.92-47.91-144.25-81.56-243.02-104.42-94.14-21.81-189.44-28.14-213.73-71.06-8.64-15.33-4.45-36.89,9.73-59.21h-24.79c-16.93,22.28-25.3,43.55-22.14,60.89,7.8,42.18,93.75,55.33,179.75,71.09,94.03,17.21,184.7,41.35,247.3,82.14,48.11,31.36,68.31,74.67,50,101.69-45.81,67.29-173.43,98.19-274.09,150.6-90.72,47.22-196.96,78.47-291.44,159.88-61.93,53.43-117.97,136.12-137.58,241.54-22.13,119.42,7.52,252.61,71.62,370.51,30.43,55.99,65.87,105.19,97.42,149.65,27.37,38.57,51.04,71.41,55.64,100.43,3.59,22.81-15.15,44.86-45.82,52.27-41.14,9.91-98.43,5.89-163.76-8.88-90.82-20.57-183.94-60.27-272.84-113.19v9.55c101.14,59.57,207.11,102.4,307.24,121.72h175.5c1.01-.4,2-.8,2.98-1.22,25.56-10.99,34.82-37.15,25.26-61.96-12.39-32.06-41.47-66.91-73.28-108.51-35.91-46.96-73.68-99.09-104.62-157.81-63.7-121.04-86.2-255.2-57.47-369.56,24.7-98.13,82.64-170.7,142.4-214.2,89.62-65.13,185.71-89.05,270.23-137.87,101.08-58.4,232.9-92.05,306.42-157.57,27.81-24.88,23.15-70.87-16.92-106.5Z"/><path class="g" d="m32.02,1531.54c-73.75-24.29-146.76-57.76-216.25-98.07v8.73c66.61,38.32,136.3,70.39,206.44,94.51h25.98c-5.37-1.67-10.75-3.39-16.16-5.17Z"/><path class="g" d="m374.99,1467.79c17.78,24.95,26.7,50.93,17.91,68.92h36.5c3.55-20.1-11.39-46.04-33.09-71.98-67.5-80.56-170.81-172.97-229.91-298.14-57.91-122.91-62.24-250.42-21.34-343.56,32.18-73,89.55-116.59,140.65-132.27,42.57-13.04,84.36-12.11,118.7-23.2,34.67-11.23,65.26-37.98,98.91-70.66,40.21-39.02,89.08-83,154.28-117.71,67.84-36.07,143.59-55.58,208.64-78.36,53.62-18.83,94.29-56.17,81.41-98.45-18.06-58.71-94.24-119.03-194.28-163.81-105.1-46.97-217.77-61.41-288.48-100.19-21.89-12.03-35.44-31.65-33.36-51.57h-30.25c-6.28,20.82,1.19,41.59,18.94,53.96,57.62,40.04,164.72,48.56,268.44,86.46,101.61,37.15,184.31,89.24,215.12,146.33,22.02,40.93-4.76,83.42-50.33,104.19-119.76,54.48-257.91,106.02-352.06,180.8-37.74,29.98-71.76,54.71-108.06,67.55-36.05,12.74-79.69,17.58-123.33,37.35-53.82,24.43-111.65,77.23-142.47,158.71-38.01,100.83-28.58,231.81,31.63,355.27,59.98,122.79,159.58,211.61,215.81,290.37Z"/><path class="h" d="m263.15,1355.54c35.56,44.24,69.51,81.02,88.92,115.32,13.86,24.47,15.13,50.57-.62,65.84h41.45c8.79-17.99-.14-43.97-17.91-68.92-56.23-78.75-155.83-167.58-215.81-290.37-60.22-123.46-69.64-254.44-31.63-355.27,30.82-81.48,88.65-134.28,142.47-158.71,43.64-19.76,87.27-24.61,123.33-37.35,36.3-12.84,70.32-37.57,108.06-67.55,94.15-74.78,232.3-126.32,352.06-180.8,45.56-20.76,72.35-63.25,50.33-104.19-30.81-57.08-113.5-109.17-215.12-146.33-103.72-37.9-210.82-46.42-268.44-86.46-17.75-12.37-25.22-33.14-18.94-53.96h-28.31c-10.45,21.76-9.14,43.22,4.27,56.68,41.91,41.91,143.35,47.12,243.45,76.44,101.26,29.7,188.82,72.8,231.87,126.25,31.21,38.79,19.79,84.36-17.09,107.14-98.47,60.66-233.88,101.62-332.91,167.67-77.47,51.67-164.81,69.41-249.46,119.61-56.86,33.78-115.13,96.29-143.55,186.28-34.02,108.03-18.43,241.36,43.85,364.23,30.85,60.83,70.27,115.39,109.74,164.43Z"/><path class="h" d="m-27.7,1501.19c-53.58-21.17-106.05-47.11-156.53-76.68v8.96c69.49,40.32,142.51,73.78,216.25,98.07,5.41,1.78,10.79,3.5,16.16,5.17h31.24c-34.81-9.28-70.7-21.14-107.12-35.52Z"/><path class="g" d="m416.78,1462.02c25.48,26.96,45.39,52.83,46.33,74.68h32c-5.04-23.24-29.06-48.95-58.03-76.76-85.17-81.75-194.1-178.79-251.39-305.37-53.74-119.03-51.6-237.81-7.22-315.3,33.07-57.6,91.45-83.64,139.83-85.5,44.94-1.72,88.07,6.57,123.09-4.35,33.98-10.65,58.23-42.5,82.38-80.37,29.25-45.86,67.46-99.3,130.27-141.08,67.08-44.58,151.27-67.57,229.36-85.25,66.91-15.15,128.81-38.79,133.44-81.92,5.97-56.74-53.91-130.81-146.54-189.94-102.02-65.03-223.83-94.85-314.03-134.87-29.24-12.97-52.89-30.15-58.75-49.18h-33.84c1.99,19.29,21.04,37.62,46.8,49.89,81.43,38.77,199.18,60.49,303.59,116.64,96.93,52.18,165.41,119.86,170.94,178.34,3.97,42.99-48.52,73.82-109.34,90.77-72.39,20.15-152.95,41.28-221.23,81.74-64.69,38.38-108.88,87.44-144,130.17-29.08,35.36-56.44,64.52-90.35,74.96-34.07,10.44-75.58,4.99-118.62,11.98-49.12,8.02-106.63,42.72-139.44,107.66-42.95,85.26-42.47,208.57,13.19,329.95,58.09,126.4,164.5,221.58,241.56,303.12Z"/><path class="h" d="m396.31,1464.73c21.7,25.93,36.64,51.88,33.09,71.98h33.72c-.94-21.85-20.85-47.72-46.34-74.68-77.1-81.51-183.47-176.72-241.56-303.12-55.64-121.38-56.15-244.69-13.19-329.95,32.81-64.95,90.32-99.64,139.44-107.66,43.03-6.99,84.54-1.54,118.62-11.98,33.91-10.43,61.27-39.6,90.35-74.96,35.13-42.72,79.31-91.78,144-130.17,68.28-40.46,148.84-61.59,221.23-81.74,60.82-16.95,113.32-47.78,109.35-90.77-5.53-58.48-74.02-126.14-170.94-178.34-104.42-56.14-222.12-77.94-303.6-116.64-25.76-12.27-44.82-30.61-46.8-49.89h-32.15c-2.07,19.91,11.47,39.54,33.36,51.57,70.71,38.77,183.38,53.22,288.48,100.19,100.04,44.79,176.22,105.11,194.28,163.81,12.88,42.28-27.79,79.62-81.41,98.45-65.04,22.78-140.8,42.3-208.64,78.36-65.21,34.71-114.08,78.69-154.28,117.71-33.66,32.67-64.25,59.43-98.91,70.66-34.34,11.09-76.12,10.16-118.7,23.2-51.11,15.68-108.47,59.27-140.65,132.27-40.91,93.14-36.57,220.64,21.34,343.56,59.09,125.17,162.41,217.58,229.91,298.14Z"/><path class="h" d="m-184.23,1442.19v8.53c13.89,7.93,28,15.69,42.41,23.2,46.23,24.13,93.59,45.18,141.21,62.78h22.82c-70.14-24.12-139.83-56.19-206.44-94.51Z"/><path class="g" d="m457.8,1458.66c32.06,28.38,59.52,53.83,68.28,78.05h30.4c-12.06-24.79-42.3-49.87-77.04-78.43-97.54-80.17-210.66-177.86-267.66-302.26-51.53-112.66-47.49-222.68-1.4-285.82,33.65-45.95,95.3-56.08,147.18-50.65,52.16,5.47,103.9,13.81,142.7-1.88,35.82-14.53,53.77-52.31,67.9-94.19,16.74-49.62,41.4-108.28,97.65-154.48,61.17-50.16,148.88-76.01,233.54-88.98,75.26-11.52,148.73-21.36,168.7-63.05,24.21-50.87-17.27-134.68-99.45-205.89-93.61-81.06-220.09-127.72-322.77-173.35-34.73-15.43-64.78-31.58-77.48-50.92h-35.77c9.47,19.07,36.76,35.46,68.99,49.52,97.21,42.4,221.95,80.63,320.23,154.01,87.6,65.48,138.33,144.94,122.38,198.95-12.71,42.68-81.54,59.14-153.29,72.52-82.16,15.31-168.72,40.02-233.28,87.97-59.84,44.52-91.35,101.22-114.31,149.41-19.08,40.06-40.21,74.81-74.91,86.82-36.75,12.68-83.42,3.45-131.48.9-49.29-2.58-109.1,15.12-142.38,66.34-45.38,70.05-48.99,184.31,3.33,300.37,56.88,125.87,167.99,223.75,259.93,305.03Z"/><path class="h" d="m437.09,1459.94c28.97,27.81,52.99,53.52,58.03,76.76h30.96c-8.76-24.22-36.22-49.67-68.28-78.05-91.94-81.28-203.05-179.17-259.93-305.03-52.32-116.06-48.72-230.32-3.33-300.37,33.28-51.22,93.09-68.93,142.38-66.34,48.06,2.55,94.73,11.79,131.48-.9,34.7-12.01,55.83-46.76,74.91-86.82,22.96-48.19,54.47-104.89,114.31-149.41,64.56-47.94,151.12-72.65,233.28-87.97,71.75-13.38,140.58-29.84,153.29-72.52,15.95-54.01-34.78-133.47-122.38-198.95-98.28-73.38-223.02-111.61-320.23-154.01-32.22-14.07-59.52-30.46-68.99-49.52h-35.07c5.86,19.03,29.51,36.21,58.75,49.18,90.2,40.02,212.01,69.84,314.03,134.87,92.63,59.13,152.52,133.2,146.54,189.94-4.63,43.13-66.53,66.77-133.44,81.92-78.09,17.68-162.27,40.67-229.36,85.25-62.81,41.79-101.02,95.23-130.27,141.08-24.15,37.87-48.39,69.72-82.38,80.37-35.02,10.92-78.15,2.63-123.09,4.35-48.37,1.85-106.76,27.9-139.83,85.5-44.38,77.49-46.52,196.27,7.22,315.3,57.28,126.59,166.22,223.63,251.39,305.37Z"/><path class="g" d="m502.46,1458.85c36.91,28.37,69.42,52.89,84.26,77.86h30.34c-17.09-24.8-51.26-48.61-89.87-76.37-105.81-76.07-222.68-170.43-282.02-290.05-52.04-105.18-49.78-208.1-3.09-259.88,35.21-38.91,101.53-37.4,161.87-30.63,62.24,7,126.08,8.69,168.55-16.05,38.28-22.35,50.02-66.3,55.66-110.87,6.33-50.06,19.45-108.81,68.38-154.58,53.87-50.3,140.7-75.31,225.98-83.14,78.22-7.16,155.49-6.56,186.36-45.33,35.89-45.29,11.43-135.13-59.95-216.23-83.03-94.2-209.86-156.91-319.5-210.44-38.35-18.74-72.12-35.91-89.65-56.31h-35.5c15.42,19.78,47.58,36.22,84.33,53.24,106.81,49.38,233.9,104.31,322.32,192.3,76.69,76.38,109.28,163.6,78.48,211.43-26.09,40.31-102.27,44.41-179.67,53.88-85.66,10.5-173.42,36.54-230.87,87.51-52.47,46.63-70.82,105.93-81.88,156.12-9.57,43.36-24.32,84.23-61.4,102.29-40.78,19.81-98.47,14.07-155.46,7.14-55.76-6.78-119.61-3.15-153.9,38.72-46.56,56.99-50.11,163.21,1.33,272.2,57.8,122.28,172.77,218.82,274.94,297.21Z"/><path class="h" d="m479.45,1458.28c34.74,28.56,64.98,53.64,77.04,78.43h30.23c-14.84-24.96-47.35-49.49-84.26-77.86-102.16-78.39-217.13-174.93-274.94-297.21-51.44-108.98-47.88-215.21-1.33-272.2,34.29-41.87,98.15-45.49,153.9-38.72,56.99,6.92,114.68,12.67,155.46-7.14,37.07-18.06,51.83-58.93,61.4-102.29,11.06-50.19,29.42-109.48,81.88-156.12,57.45-50.97,145.2-77.02,230.87-87.51,77.41-9.47,153.59-13.57,179.67-53.88,30.8-47.83-1.79-135.04-78.48-211.43-88.41-88-215.5-142.92-322.32-192.3-36.74-17.03-68.9-33.47-84.33-53.24h-35.89c12.71,19.33,42.75,35.49,77.48,50.92,102.69,45.63,229.16,92.28,322.77,173.35,82.17,71.22,123.66,155.02,99.45,205.89-19.97,41.69-93.44,51.53-168.7,63.05-84.66,12.96-172.38,38.81-233.54,88.98-56.25,46.19-80.91,104.86-97.65,154.48-14.13,41.88-32.08,79.66-67.9,94.19-38.8,15.7-90.54,7.36-142.7,1.88-51.89-5.43-113.54,4.7-147.18,50.65-46.09,63.15-50.13,173.16,1.4,285.82,57,124.39,170.12,222.09,267.66,302.26Z"/><path class="g" d="m553.93,1462.66c39.77,26.82,75.13,49.69,93.85,74.05h31.28c-19.75-23.7-55.72-45.49-96.15-71.03-110.59-69.86-231.35-157.02-296-270.02-55.63-97.41-58.25-195.18-12.51-239.97,36.89-35.99,108.47-28.91,177.95-25.28,72.63,3.76,147.37-5.08,192.51-40.56,40.5-31.89,47.79-81.82,48.47-128.42.7-48.56,7.85-103.77,51.42-144.25,48.36-44.85,130.8-63.81,211.67-65.72,76.03-1.77,151.94,4.73,188.13-31.57,42.51-42.78,31.23-136.65-30.99-226.18-72.83-104.65-197.25-181.12-309.25-243.17-40.28-22.32-76.03-41.69-95.93-63.71h-33.86c19.03,21.17,54,39.35,93.52,59.89,111.34,57.81,237.19,127.76,314.97,227.47,66.49,85.45,83.82,177.41,44.1,220.95-34.21,37.36-111.31,33.19-189.04,37.76-83.64,4.94-168.67,27.57-219.46,75.77-45.91,43.67-55.25,100.97-58.08,150.41-2.61,45.62-11.75,92.6-51.14,119.68-43.88,30.09-113.51,33.44-181.07,27.59-65.07-5.64-134.03-10.73-170.2,26.26-46.45,47.67-46.66,147.8,6.77,249.11,61.63,116.52,180.42,207.75,289.04,280.95Z"/><path class="h" d="m527.19,1460.33c38.61,27.77,72.79,51.57,89.87,76.37h30.72c-18.72-24.36-54.08-47.23-93.85-74.05-108.62-73.2-227.41-164.43-289.04-280.95-53.44-101.31-53.23-201.44-6.77-249.11,36.17-36.99,105.13-31.89,170.2-26.26,67.56,5.85,137.2,2.49,181.07-27.59,39.39-27.08,48.53-74.07,51.14-119.68,2.83-49.44,12.17-106.74,58.08-150.41,50.79-48.2,135.83-70.83,219.46-75.77,77.73-4.57,154.83-.4,189.04-37.76,39.71-43.54,22.39-135.5-44.1-220.95-77.78-99.71-203.62-169.66-314.97-227.47-39.52-20.54-74.49-38.72-93.52-59.89h-34.77c17.54,20.4,51.3,37.58,89.65,56.31,109.64,53.53,236.48,116.24,319.5,210.44,71.38,81.1,95.84,170.94,59.95,216.23-30.86,38.78-108.14,38.18-186.36,45.33-85.28,7.82-172.11,32.84-225.98,83.14-48.92,45.77-62.05,104.52-68.38,154.58-5.64,44.57-17.38,88.53-55.66,110.87-42.47,24.74-106.31,23.05-168.55,16.05-60.34-6.77-126.66-8.28-161.87,30.63-46.69,51.78-48.95,154.7,3.09,259.88,59.34,119.63,176.21,213.98,282.02,290.05Z"/><path class="g" d="m614.26,1469.19c40.6,24.01,76.7,44.61,96.84,67.51h32.92c-19.88-22.03-55.65-41.4-95.94-63.71-111.99-62.08-236.39-138.54-309.25-243.17-62.21-89.54-73.49-183.4-30.99-226.18,36.2-36.3,112.11-29.78,188.13-31.57,80.88-1.9,163.31-20.87,211.67-65.72,43.56-40.49,50.72-95.69,51.42-144.25.67-46.6,7.97-96.52,48.47-128.42,45.15-35.47,119.88-44.33,192.51-40.56,69.49,3.61,141.07,10.7,177.95-25.28,45.74-44.79,43.12-142.56-12.51-239.97-64.7-112.98-185.44-200.14-296-270.02-40.44-25.54-76.44-47.33-96.17-71.04h-32.03c20.13,22.9,56.24,43.5,96.84,67.51,111.73,66.12,234.4,148.34,302.82,257.4,58.56,93.5,64.99,189.24,20.51,232.4-37.01,35.79-110.98,28.27-184.21,27.23-77.14-1.07-156.16,13.15-202.7,53.66-41.82,36.47-48.35,89.16-48.35,136.75s-6.54,100.27-48.35,136.75c-46.55,40.51-125.56,54.73-202.71,53.66-73.22-1.04-147.2-8.56-184.21,27.23-44.47,43.16-38.04,138.9,20.51,232.4,68.42,109.06,191.09,191.28,302.82,257.39Z"/><path class="h" d="m582.91,1465.67c40.43,25.54,76.4,47.34,96.15,71.03h32.04c-20.13-22.9-56.24-43.5-96.84-67.51-111.73-66.12-234.4-148.34-302.82-257.39-58.56-93.5-64.98-189.24-20.51-232.4,37.01-35.79,110.99-28.27,184.21-27.23,77.15,1.07,156.16-13.15,202.71-53.66,41.81-36.47,48.35-89.16,48.35-136.75s6.54-100.27,48.35-136.75c46.55-40.51,125.56-54.73,202.7-53.66,73.22,1.04,147.2,8.56,184.21-27.23,44.47-43.16,38.05-138.9-20.51-232.4-68.42-109.06-191.09-191.28-302.82-257.4-40.6-24.01-76.71-44.61-96.84-67.51h-32.9c19.9,22.02,55.64,41.39,95.93,63.71,112.01,62.05,236.43,138.52,309.25,243.17,62.21,89.53,73.49,183.4,30.99,226.18-36.2,36.3-112.11,29.8-188.13,31.57-80.87,1.91-163.31,20.87-211.67,65.72-43.57,40.48-50.72,95.69-51.42,144.25-.67,46.6-7.97,96.52-48.47,128.42-45.14,35.48-119.88,44.32-192.51,40.56-69.49-3.63-141.07-10.7-177.95,25.28-45.74,44.79-43.12,142.56,12.51,239.97,64.65,113.01,185.41,200.17,296,270.02Z"/><path class="g" d="m684.35,1476.81c39.53,20.53,74.49,38.72,93.52,59.89h34.77c-17.54-20.4-51.32-37.55-89.65-56.31-109.66-53.51-236.48-116.25-319.5-210.45-71.38-81.1-95.84-170.94-59.95-216.23,30.86-38.78,108.14-38.18,186.36-45.33,85.28-7.82,172.11-32.84,225.98-83.14,48.93-45.76,62.05-104.52,68.38-154.58,5.64-44.57,17.37-88.53,55.66-110.87,42.47-24.73,106.31-23.05,168.55-16.05,60.34,6.78,126.66,8.28,161.87-30.63,46.69-51.78,48.96-154.7-3.1-259.88-59.32-119.63-176.19-213.99-282.02-290.05-38.59-27.79-72.79-51.57-89.88-76.37h-30.72c18.71,24.37,54.07,47.24,93.85,74.05,108.6,73.22,227.45,164.41,289.04,280.95,53.49,101.29,53.22,201.43,6.77,249.11-36.17,36.99-105.13,31.89-170.2,26.26-67.57-5.84-137.2-2.49-181.07,27.6-39.38,27.08-48.53,74.07-51.13,119.68-2.83,49.44-12.16,106.75-58.08,150.41-50.79,48.2-135.83,70.82-219.46,75.77-77.73,4.57-154.83.4-189.04,37.76-39.71,43.54-22.44,135.53,44.1,220.96,77.74,99.73,203.64,169.64,314.97,227.47Z"/><path class="h" d="m648.08,1472.99c40.29,22.31,76.05,41.68,95.94,63.71h33.85c-19.03-21.17-53.99-39.36-93.52-59.89-111.32-57.84-237.22-127.74-314.97-227.47-66.54-85.43-83.81-177.41-44.1-220.96,34.21-37.36,111.31-33.19,189.04-37.76,83.64-4.94,168.68-27.56,219.46-75.77,45.92-43.66,55.25-100.97,58.08-150.41,2.61-45.62,11.75-92.6,51.13-119.68,43.88-30.09,113.51-33.44,181.07-27.6,65.07,5.63,134.03,10.73,170.2-26.26,46.45-47.68,46.71-147.82-6.77-249.11-61.59-116.54-180.43-207.73-289.04-280.95-39.78-26.81-75.14-49.68-93.85-74.05h-31.29c19.73,23.71,55.73,45.5,96.17,71.04,110.57,69.88,231.3,157.04,296,270.02,55.63,97.41,58.26,195.19,12.51,239.97-36.89,35.98-108.46,28.89-177.95,25.28-72.63-3.77-147.37,5.09-192.51,40.56-40.5,31.9-47.8,81.82-48.47,128.42-.7,48.56-7.86,103.77-51.42,144.25-48.37,44.85-130.8,63.81-211.67,65.72-76.03,1.78-151.93-4.73-188.13,31.57-42.5,42.79-31.22,136.65,30.99,226.18,72.87,104.63,197.27,181.09,309.25,243.17Z"/><path class="g" d="m763.81,1483.46c36.76,17,68.92,33.46,84.33,53.24h35.88c-12.71-19.33-42.75-35.49-77.48-50.91-102.71-45.6-229.14-92.31-322.78-173.35-82.15-71.23-123.65-155.02-99.44-205.89,19.97-41.69,93.44-51.54,168.7-63.05,84.66-12.97,172.37-38.81,233.54-88.98,56.25-46.19,80.9-104.86,97.65-154.48,14.13-41.88,32.08-79.66,67.9-94.19,38.8-15.7,90.54-7.34,142.7-1.88,51.88,5.44,113.54-4.7,147.18-50.65,46.1-63.15,50.12-173.16-1.4-285.82-57.01-124.39-170.11-222.1-267.66-302.26-34.75-28.55-64.99-53.64-77.04-78.43h-30.23c14.84,24.97,47.33,49.51,84.26,77.86,102.13,78.42,217.12,174.94,274.94,297.21,51.4,109,47.87,215.2,1.33,272.2-34.31,41.86-98.15,45.49-153.9,38.72-56.99-6.93-114.68-12.67-155.46,7.14-37.07,18.07-51.83,58.93-61.39,102.29-11.06,50.19-29.42,109.48-81.88,156.12-57.45,50.97-145.2,77.02-230.87,87.51-77.41,9.47-153.59,13.57-179.67,53.88-30.81,47.83,1.83,135.01,78.48,211.43,88.45,87.97,215.51,142.9,322.31,192.3Z"/><path class="h" d="m722.99,1480.39c38.33,18.76,72.11,35.91,89.65,56.31h35.51c-15.42-19.78-47.57-36.24-84.33-53.24-106.8-49.4-233.87-104.33-322.31-192.3-76.65-76.41-109.28-163.6-78.48-211.43,26.09-40.31,102.26-44.41,179.67-53.88,85.66-10.5,173.42-36.54,230.87-87.51,52.46-46.64,70.82-105.93,81.88-156.12,9.57-43.36,24.33-84.22,61.39-102.29,40.78-19.81,98.47-14.07,155.46-7.14,55.76,6.78,119.6,3.15,153.9-38.72,46.55-56.99,50.08-163.2-1.33-272.2-57.82-122.27-172.81-218.79-274.94-297.21-36.94-28.35-69.42-52.89-84.26-77.86h-30.34c17.08,24.8,51.29,48.59,89.88,76.37,105.82,76.06,222.69,170.42,282.02,290.05,52.05,105.17,49.79,208.1,3.1,259.88-35.21,38.91-101.53,37.41-161.87,30.63-62.24-7-126.07-8.69-168.55,16.05-38.28,22.35-50.02,66.3-55.66,110.87-6.33,50.06-19.45,108.82-68.38,154.58-53.87,50.3-140.7,75.31-225.98,83.14-78.21,7.16-155.49,6.56-186.36,45.33-35.89,45.29-11.43,135.13,59.95,216.23,83.03,94.2,209.85,156.93,319.5,210.45Z"/><path class="g" d="m530.58,1333.17c98.28,73.39,223.01,111.63,320.23,154.01,32.22,14.07,59.5,30.46,68.98,49.52h35.08c-5.87-19.02-29.52-36.18-58.75-49.17-90.19-40.03-212-69.86-314.03-134.87-92.65-59.11-152.52-133.2-146.54-189.94,4.63-43.13,66.52-66.77,133.44-81.92,78.09-17.69,162.27-40.67,229.36-85.25,62.81-41.79,101.02-95.23,130.27-141.08,24.15-37.87,48.39-69.73,82.38-80.37,35.02-10.93,78.14-2.64,123.09-4.35,48.37-1.85,106.76-27.9,139.83-85.5,44.38-77.49,46.54-196.27-7.22-315.29-57.28-126.59-166.24-223.61-251.39-305.37-28.96-27.82-52.99-53.52-58.03-76.77h-30.96c8.76,24.22,36.21,49.68,68.28,78.05,91.94,81.28,203.06,179.16,259.93,305.03,52.33,116.06,48.71,230.32,3.33,300.37-33.28,51.21-93.08,68.92-142.38,66.34-48.06-2.54-94.73-11.79-131.48.9-34.7,12.01-55.83,46.76-74.91,86.82-22.96,48.19-54.46,104.9-114.31,149.41-64.56,47.94-151.12,72.64-233.28,87.97-71.75,13.37-140.56,29.84-153.29,72.52-15.95,54.01,34.78,133.47,122.38,198.95Z"/><path class="g" d="m1648.89,62.98c-46.92-26.69-96.4-51.5-148.33-73.16-2.43-1.01-4.87-2.01-7.31-3.01h-19.46c24.42,9.54,48.76,19.95,72.88,31.2,35.42,16.54,69.48,34.51,102.22,53.42v-8.44Z"/><path class="h" d="m806.55,1485.79c34.73,15.43,64.77,31.58,77.48,50.91h35.77c-9.48-19.07-36.76-35.46-68.98-49.52-97.23-42.38-221.95-80.63-320.23-154.01-87.6-65.48-138.32-144.94-122.38-198.95,12.72-42.68,81.53-59.15,153.29-72.52,82.16-15.32,168.72-40.02,233.28-87.97,59.85-44.51,91.35-101.22,114.31-149.41,19.08-40.06,40.21-74.81,74.91-86.82,36.75-12.68,83.42-3.44,131.48-.9,49.29,2.58,109.1-15.13,142.38-66.34,45.38-70.05,49-184.31-3.33-300.37-56.87-125.87-167.99-223.75-259.93-305.03-32.07-28.38-59.51-53.83-68.28-78.05h-30.41c12.05,24.79,42.29,49.88,77.04,78.43,97.55,80.16,210.65,177.87,267.66,302.26,51.52,112.67,47.49,222.68,1.4,285.82-33.65,45.95-95.3,56.09-147.18,50.65-52.16-5.46-103.91-13.82-142.7,1.88-35.82,14.53-53.77,52.31-67.9,94.19-16.75,49.62-41.4,108.29-97.65,154.48-61.17,50.16-148.88,76.01-233.54,88.98-75.26,11.51-148.73,21.35-168.7,63.05-24.21,50.87,17.29,134.66,99.44,205.89,93.63,81.05,220.07,127.75,322.78,173.35Z"/><path class="h" d="m1648.89,54.54c-43.71-24.48-89.56-47.38-137.35-67.73h-18.29c2.44,1,4.87,1.99,7.31,3.01,51.93,21.66,101.41,46.47,148.33,73.16v-8.44Z"/><path class="g" d="m638.31,1370.17c104.42,56.14,222.12,77.94,303.59,116.64,25.76,12.27,44.81,30.61,46.8,49.89h32.15c2.07-19.91-11.48-39.54-33.37-51.57-70.71-38.77-183.38-53.22-288.48-100.19-100.04-44.79-176.22-105.1-194.28-163.81-12.88-42.28,27.79-79.62,81.41-98.45,65.04-22.78,140.8-42.3,208.64-78.37,65.21-34.71,114.08-78.69,154.28-117.71,33.66-32.67,64.25-59.43,98.91-70.66,34.34-11.09,76.12-10.17,118.7-23.2,51.11-15.68,108.48-59.27,140.65-132.27,40.91-93.14,36.57-220.64-21.34-343.55-59.09-125.17-162.41-217.58-229.91-298.14-21.7-25.94-36.64-51.89-33.09-71.98h-33.72c.94,21.85,20.86,47.72,46.34,74.68,77.1,81.51,183.47,176.72,241.56,303.12,55.64,121.38,56.15,244.69,13.19,329.95-32.81,64.94-90.32,99.64-139.44,107.66-43.03,6.99-84.54,1.54-118.62,11.98-33.91,10.43-61.27,39.6-90.35,74.96-35.13,42.72-79.31,91.78-144,130.17-68.28,40.46-148.84,61.59-221.23,81.74-60.82,16.95-113.32,47.78-109.34,90.77,5.53,58.48,74.02,126.14,170.94,178.34Z"/><path class="g" d="m1648.89,79.88c-17.8-10.41-36.01-20.54-54.69-30.28-46.23-24.13-93.6-45.19-141.21-62.78h-22.82c72.26,24.85,144.06,58.12,212.5,97.99,2.09,1.22,4.15,2.46,6.23,3.69v-8.62Z"/><path class="h" d="m1648.89,71.43c-32.74-18.91-66.8-36.88-102.22-53.42-24.12-11.25-48.46-21.66-72.88-31.2h-20.8c47.62,17.6,94.99,38.65,141.21,62.78,18.67,9.74,36.89,19.87,54.69,30.28v-8.45Z"/><path class="h" d="m582.1,1352.66c102.03,65.01,223.84,94.84,314.03,134.87,29.23,12.99,52.88,30.15,58.75,49.17h33.83c-1.99-19.28-21.04-37.62-46.8-49.89-81.48-38.7-199.18-60.5-303.59-116.64-96.92-52.2-165.4-119.86-170.94-178.34-3.97-42.99,48.53-73.82,109.34-90.77,72.39-20.15,152.95-41.28,221.23-81.74,64.69-38.38,108.88-87.44,144-130.17,29.08-35.36,56.44-64.53,90.35-74.96,34.07-10.44,75.58-4.99,118.62-11.98,49.12-8.02,106.63-42.72,139.44-107.66,42.95-85.26,42.45-208.57-13.19-329.95-58.09-126.4-164.46-221.61-241.56-303.12-25.48-26.96-45.4-52.83-46.34-74.68h-31.99c5.04,23.24,29.07,48.95,58.03,76.77,85.15,81.76,194.1,178.78,251.39,305.37,53.76,119.03,51.6,237.81,7.22,315.29-33.07,57.6-91.45,83.65-139.83,85.5-44.94,1.72-88.07-6.58-123.09,4.35-33.99,10.64-58.23,42.5-82.38,80.37-29.25,45.86-67.47,99.3-130.27,141.08-67.08,44.58-151.27,67.56-229.36,85.25-66.91,15.15-128.81,38.79-133.44,81.92-5.97,56.74,53.89,130.83,146.54,189.94Z"/><path class="g" d="m763.72,1396.29c103.72,37.9,210.81,46.42,268.44,86.46,17.75,12.37,25.22,33.13,18.94,53.96h28.3c10.44-21.76,9.16-43.21-4.26-56.68-41.88-41.93-143.36-47.1-243.45-76.44-101.27-29.69-188.81-72.81-231.87-126.25-31.18-38.8-19.78-84.35,17.09-107.14,98.47-60.67,233.88-101.62,332.9-167.67,77.48-51.67,164.81-69.42,249.46-119.6,56.86-33.79,115.14-96.29,143.56-186.28,34.01-108.03,18.42-241.36-43.85-364.23-30.86-60.82-70.28-115.38-109.74-164.43-35.6-44.22-69.5-81.02-88.92-115.32-13.86-24.47-15.1-50.55.63-65.84h-41.47c-8.79,17.99.13,43.97,17.91,68.92,56.24,78.75,155.83,167.58,215.81,290.37,60.22,123.46,69.64,254.44,31.64,355.28-30.82,81.48-88.65,134.28-142.47,158.71-43.64,19.76-87.28,24.61-123.33,37.35-36.3,12.84-70.32,37.57-108.06,67.55-94.15,74.78-232.3,126.32-352.06,180.8-45.56,20.76-72.35,63.25-50.33,104.19,30.81,57.08,113.5,109.17,215.12,146.32Z"/><path class="g" d="m1648.89,97.27c-73.14-43.54-150.42-79.56-228.53-105.29-5.41-1.78-10.8-3.5-16.17-5.17h-31.29c34.82,9.28,70.74,21.14,107.18,35.52,57.93,22.9,114.58,51.35,168.81,83.95v-9.02Z"/><path class="h" d="m699.01,1384.95c105.1,46.97,217.77,61.42,288.48,100.19,21.89,12.03,35.43,31.65,33.37,51.57h30.25c6.28-20.82-1.19-41.58-18.94-53.96-57.63-40.04-164.72-48.56-268.44-86.46-101.61-37.15-184.31-89.24-215.12-146.32-22.02-40.94,4.76-83.42,50.33-104.19,119.76-54.48,257.91-106.02,352.06-180.8,37.74-29.98,71.76-54.71,108.06-67.55,36.05-12.74,79.69-17.58,123.33-37.35,53.82-24.43,111.65-77.23,142.47-158.71,38.01-100.83,28.58-231.81-31.64-355.28-59.98-122.79-159.58-211.61-215.81-290.37-17.78-24.95-26.7-50.94-17.91-68.92h-36.5c-3.55,20.1,11.39,46.04,33.09,71.98,67.5,80.56,170.81,172.97,229.91,298.14,57.91,122.91,62.25,250.42,21.34,343.55-32.18,73.01-89.55,116.59-140.65,132.27-42.57,13.04-84.36,12.11-118.7,23.2-34.66,11.23-65.25,37.98-98.91,70.66-40.2,39.02-89.07,82.99-154.28,117.71-67.84,36.07-143.59,55.58-208.64,78.37-53.63,18.82-94.29,56.17-81.41,98.45,18.06,58.71,94.24,119.03,194.28,163.81Z"/><path class="h" d="m1648.89,88.49c-2.08-1.23-4.13-2.47-6.23-3.69-68.43-39.87-140.24-73.14-212.5-97.99h-25.98c5.37,1.67,10.76,3.39,16.17,5.17,78.1,25.73,155.38,61.74,228.53,105.29v-8.77Z"/><path class="g" d="m901.91,1406.44c94.15,21.76,189.4,28.16,213.73,71.06,8.63,15.33,4.46,36.89-9.72,59.21h24.78c16.92-22.28,25.28-43.55,22.14-60.88-7.78-42.18-93.74-55.36-179.75-71.09-94.01-17.26-184.68-41.37-247.31-82.14-48.09-31.38-68.31-74.67-50-101.69,45.79-67.29,173.42-98.2,274.09-150.6,90.72-47.23,196.96-78.46,291.45-159.88,61.93-53.43,117.94-136.12,137.58-241.54,22.13-119.42-7.55-252.6-71.63-370.51-30.46-55.98-65.88-105.18-97.42-149.65-27.38-38.56-51.05-71.41-55.64-100.43-3.57-22.81,15.15-44.88,45.82-52.27,41.15-9.89,98.43-5.91,163.76,8.88,95.01,21.53,192.53,64,285.11,120.62v-9.68c-104.82-63.39-215.34-108.93-319.53-129.03h-175.47c-1.01.4-2.01.8-2.99,1.22-25.58,10.95-34.83,37.15-25.26,61.96,12.4,32.05,41.48,66.91,73.27,108.51,35.92,46.96,73.69,99.09,104.62,157.81,63.68,121.04,86.2,255.2,57.47,369.56-24.73,98.13-82.64,170.7-142.4,214.21-89.62,65.13-185.72,89.05-270.23,137.87-101.08,58.39-232.9,92.05-306.42,157.57-27.8,24.88-23.13,70.84,16.93,106.5,53.92,47.91,144.25,81.54,243.02,104.42Z"/><path class="h" d="m831.7,1403.58c100.09,29.34,201.57,34.51,243.45,76.44,13.42,13.46,14.7,34.92,4.26,56.68h26.51c14.18-22.31,18.35-43.87,9.72-59.21-24.33-42.9-119.58-49.3-213.73-71.06-98.77-22.88-189.1-56.52-243.02-104.42-40.06-35.66-44.73-81.62-16.93-106.5,73.52-65.52,205.34-99.18,306.42-157.57,84.51-48.82,180.61-72.74,270.23-137.87,59.76-43.5,117.67-116.08,142.4-214.21,28.73-114.36,6.21-248.52-57.47-369.56-30.93-58.72-68.71-110.84-104.62-157.81-31.8-41.6-60.88-76.45-73.27-108.51-9.57-24.81-.32-51.01,25.26-61.96.98-.42,1.98-.83,2.99-1.22h-52.94c-15.74,15.29-14.5,41.37-.63,65.84,19.42,34.3,53.32,71.1,88.92,115.32,39.47,49.05,78.88,103.61,109.74,164.43,62.28,122.87,77.87,256.2,43.85,364.23-28.42,89.99-86.7,152.49-143.56,186.28-84.65,50.19-171.98,67.93-249.46,119.6-99.03,66.05-234.44,107-332.9,167.67-36.88,22.79-48.27,68.34-17.09,107.14,43.06,53.44,130.6,96.56,231.87,126.25Z"/><path class="h" d="m1648.89,106.28c-54.23-32.6-110.88-61.05-168.81-83.95-36.44-14.38-72.36-26.24-107.18-35.52h-43.54c104.19,20.1,214.72,65.64,319.53,129.03v-9.56Z"/><path class="g" d="m1043.79,1398.7c76.03,11.67,147.48,35.08,142.14,77.03-2.4,18.54-13.69,39.33-32.07,60.97h21.65c18.57-20.34,31.71-40.14,38.65-58.67,16.79-44.95-36.81-79.15-101.6-89.03-159.39-24.26-330.34-54.55-337.83-122.87-5.84-55.56,105.03-96.72,199.32-143.19,49.1-24.2,100.34-48.68,152.15-78.26,57.09-32.61,119.36-75.22,172.15-137.97,61.44-73.19,107.31-174.06,112.95-289.64,5.98-124.1-36.52-249.24-96.52-357.17-51.46-92.56-115.55-166.31-90.46-209.38,11.07-18.86,45.9-28.34,87.28-26.96,53.07,1.78,116.73,17.08,185.18,44.08,52.34,20.67,103.24,47,152.11,77.51v-9.86c-70.72-43.76-144.82-79.05-219.63-102.07-67.41-20.69-128.18-30.1-175.72-25.68-36.04,3.32-63.63,19.72-66.71,40.65-8.12,56.35,67.91,130.24,123.91,231.1,62.98,113.52,99.55,243.69,85.13,366.49-13.15,111.39-65.26,203.71-127.95,267.13-52.83,53.41-112.13,87.44-165.08,114.5-48.88,24.98-97.26,47.75-145.35,71.45-98.26,48.4-219.76,82.09-237.73,146.15-17.75,64.47,150.16,126.96,324.03,153.67Z"/><path class="h" d="m725.77,1322.58c62.62,40.78,153.29,64.88,247.31,82.14,86.01,15.73,171.97,28.91,179.75,71.09,3.14,17.34-5.22,38.61-22.14,60.88h23.18c18.38-21.65,29.66-42.44,32.07-60.97,5.34-41.95-66.12-65.36-142.14-77.03-173.87-26.71-341.78-89.2-324.03-153.67,17.96-64.06,139.47-97.75,237.73-146.15,48.09-23.7,96.47-46.47,145.35-71.45,52.96-27.07,112.25-61.1,165.08-114.5,62.69-63.43,114.79-155.74,127.95-267.13,14.43-122.79-22.15-252.97-85.13-366.49-56-100.86-132.03-174.75-123.91-231.1,3.08-20.93,30.67-37.33,66.71-40.65,47.54-4.42,108.31,4.99,175.72,25.68,74.81,23.02,148.91,58.3,219.63,102.07v-9.78c-92.59-56.63-190.1-99.09-285.11-120.62-65.33-14.79-122.61-18.76-163.76-8.88-30.67,7.39-49.39,29.46-45.82,52.27,4.6,29.02,28.26,61.87,55.64,100.43,31.53,44.47,66.95,93.67,97.42,149.65,64.07,117.92,93.76,251.09,71.63,370.51-19.64,105.42-75.64,188.11-137.58,241.54-94.48,81.42-200.73,112.65-291.45,159.88-100.68,52.4-228.3,83.31-274.09,150.6-18.31,27.02,1.91,70.3,50,101.69Z"/><path class="g" d="m1177.95,1376.68c53.26,10.57,87.8,55.68,58.8,106.81-9.78,17.21-23.51,35.08-40.92,53.21h19.25c14.72-14.76,27.36-29.45,37.84-43.87,42.81-59.05,28.6-115.57-14.28-129.64-115.42-37.73-268.22-16.37-322.21-72.51-32.25-33.69,41.74-89.79,124.76-137.79,48.73-28.19,102.88-59.25,156.94-100.13,60.81-46.03,122.93-106.57,168.87-186.67,51.62-90.13,78.83-202.24,68.54-319.56-10.58-119.57-59.65-229.19-106.68-322.79-36.99-73.59-55.65-142.7-12.56-157.41,29.51-10,73.79-6.22,124.22,6.76,60.7,15.63,126.89,44.19,193.73,83.89,4.92,2.93,9.8,5.91,14.65,8.93v-9.55c-26.79-17.43-54.59-33.48-83.4-47.6-68.28-33.45-133.88-55.18-191.41-63.68-46.31-6.83-86.4-4.3-106.75,11.14-36.49,27.77,7.98,101.44,53.08,184.85,54.77,101.25,101.59,219.45,104.21,342.51,2.41,117.64-34.99,225.32-92.79,307.6-50.55,71.84-113.97,123.41-173.88,162.38-53.7,34.92-106.98,62.16-156.33,87.88-89.13,46.43-183.33,96.3-160.97,140.65,33.31,65.26,196.98,66.97,337.3,94.61Z"/><path class="h" d="m1112.56,1389c64.79,9.89,118.4,44.08,101.6,89.03-6.94,18.53-20.08,38.33-38.65,58.67h20.32c17.41-18.13,31.13-36,40.92-53.21,28.99-51.13-5.55-96.25-58.8-106.81-140.32-27.64-303.99-29.34-337.3-94.61-22.36-44.35,71.84-94.22,160.97-140.65,49.36-25.72,102.64-52.97,156.33-87.88,59.91-38.98,123.33-90.54,173.88-162.38,57.8-82.27,95.2-189.95,92.79-307.6-2.62-123.06-49.44-241.26-104.21-342.51-45.1-83.41-89.57-157.09-53.08-184.85,20.36-15.44,60.44-17.97,106.75-11.14,57.52,8.5,123.12,30.23,191.41,63.68,28.82,14.12,56.61,30.17,83.4,47.6v-11.19c-48.87-30.51-99.76-56.84-152.11-77.51-68.45-27-132.11-42.29-185.18-44.08-41.38-1.38-76.21,8.1-87.28,26.96-25.09,43.07,38.99,116.82,90.46,209.38,60,107.92,102.5,233.07,96.52,357.17-5.64,115.59-51.5,216.46-112.95,289.64-52.79,62.76-115.05,105.36-172.15,137.97-51.81,29.58-103.05,54.06-152.15,78.26-94.29,46.47-205.16,87.63-199.32,143.19,7.49,68.32,178.43,98.61,337.83,122.87Z"/><path class="g" d="m999.89,1290.06c66.59,44.14,211.68,7.9,293.64,60.18,34.51,22.11,26.5,88.9-31.64,156.35-8.64,10.01-18.13,20.06-28.46,30.11h17.63c4.06-3.86,8.02-7.74,11.86-11.61,40.77-41.11,67.85-80.86,80.42-115.84,9.99-27.87,9.55-53.01-1.6-69.51-20.19-29.88-74.68-34.43-125.59-38.43-50.51-3.93-96.75-7.66-128.24-22.2-23.24-10.74-31.14-33.35-19.66-52.11,15.37-24.88,47.79-49.46,85.42-79.41,44.24-35.2,95.38-76.09,144.27-129.47,55.33-60.47,106.56-136.74,137.1-228.43,33.15-99.67,38.37-211.89,16.05-321.45-21.56-105.65-67.7-195.01-91.49-270.43-9.29-29.4-13.33-56.12-1.55-73.28,11.01-16.06,40.46-23.09,74.16-19.74,43.29,4.25,94.45,21,149.29,47.69,22.45,10.92,44.97,23.35,67.38,37.11v-12.22c-46.72-28.89-93.58-52.07-138.83-68.78-53.38-19.68-101.47-29.74-138.72-26.53-49.97,4.38-57.23,63.55-29.88,126.86,36.75,85.01,85.54,184.86,102.69,298.55,17.19,114.59,1.09,228.28-42.11,324.4-39.09,86.91-97.12,155.94-156.48,209.3-52.5,47.19-106.03,82.91-153.1,114.35-76.12,50.84-130.3,109.38-92.56,134.53Z"/><path class="h" d="m1238.64,1363.19c42.88,14.07,57.09,70.59,14.28,129.64-10.48,14.42-23.12,29.11-37.84,43.87h18.36c10.32-10.05,19.82-20.11,28.46-30.11,58.14-67.45,66.15-134.24,31.64-156.35-81.97-52.28-227.06-16.04-293.64-60.18-37.74-25.15,16.44-83.69,92.56-134.53,47.07-31.43,100.59-67.16,153.1-114.35,59.36-53.37,117.39-122.39,156.48-209.3,43.21-96.11,59.3-209.81,42.11-324.4-17.14-113.68-65.94-213.54-102.69-298.55-27.35-63.31-20.09-122.48,29.88-126.86,37.25-3.22,85.34,6.85,138.72,26.53,45.26,16.71,92.11,39.89,138.83,68.78v-11.48c-4.85-3.02-9.73-6-14.65-8.93-66.84-39.7-133.03-68.26-193.73-83.89-50.43-12.98-94.71-16.76-124.22-6.76-43.09,14.71-24.42,83.82,12.56,157.41,47.03,93.6,96.11,203.22,106.68,322.79,10.29,117.33-16.92,229.44-68.54,319.56-45.94,80.1-108.06,140.65-168.87,186.67-54.06,40.88-108.2,71.94-156.94,100.13-83.02,48-157.01,104.1-124.76,137.79,53.99,56.14,206.79,34.78,322.21,72.51Z"/><path class="g" d="m1176.84,1257.77c67.77,24.16,194.76,11.25,205.75,75.84,3.91,23.2-3.51,53.1-21.02,86.26-19.47,36.74-50.63,76.62-93.53,116.82h16.48c36.11-33.48,64.94-67.17,86.56-99.52,25.58-38.35,40.4-73.68,44.36-103.5,5.74-43.65-22.38-74.73-55.38-85.03-33.76-10.53-69.39-11.82-97.11-21.27-22.04-7.53-35.4-25.02-30.31-43.28,6.91-24.78,31.31-53.06,60.3-88.39,35.12-42.81,76.29-93.52,112.36-156.78,40.59-71.19,72.54-155.67,84.3-249.29,12.28-98.19.44-198.95-24.19-292.84-22.24-84.72-56.53-154.14-47.87-205.14,6.03-34.86,75.05-45.66,150.42-15.42,26.81,10.77,53.9,24.33,80.94,40.38v-14.49c-51.61-31.42-102.76-54.14-150.7-66.36-67.86-17.28-119.2,12.84-113.56,55.81,8.47,64.4,49.6,143.27,72.99,239.11,24.93,102.54,29.39,210.31,6.91,310.71-21.07,93.99-63.32,175.6-112.23,242.22-43.29,58.92-90.25,104.99-130.47,144.1-33.56,32.64-62.06,58.97-72.62,83.71-7.79,18.3,4.18,37.98,27.62,46.32Z"/><path class="h" d="m1087.92,1279.1c31.5,14.54,77.73,18.27,128.24,22.2,50.91,4.01,105.39,8.56,125.59,38.43,11.15,16.5,11.6,41.65,1.6,69.51-12.57,34.98-39.66,74.74-80.42,115.84-3.84,3.87-7.8,7.74-11.86,11.61h16.97c42.9-40.21,74.06-80.09,93.53-116.82,17.51-33.16,24.93-63.07,21.02-86.26-10.98-64.59-137.98-51.68-205.75-75.84-23.44-8.34-35.41-28.03-27.62-46.32,10.56-24.75,39.06-51.07,72.62-83.71,40.22-39.11,87.18-85.18,130.47-144.1,48.9-66.62,91.16-148.23,112.23-242.22,22.48-100.4,18.03-208.18-6.91-310.71-23.39-95.84-64.52-174.72-72.99-239.11-5.64-42.97,45.7-73.1,113.56-55.81,47.94,12.22,99.09,34.94,150.7,66.36v-12.54c-22.41-13.77-44.93-26.19-67.38-37.11-54.84-26.69-106-43.44-149.29-47.69-33.7-3.34-63.15,3.69-74.16,19.74-11.78,17.16-7.74,43.88,1.55,73.28,23.79,75.42,69.92,164.78,91.49,270.43,22.32,109.56,17.1,221.77-16.05,321.45-30.54,91.69-81.78,167.96-137.1,228.43-48.89,53.38-100.04,94.27-144.27,129.47-37.63,29.95-70.05,54.53-85.42,79.41-11.48,18.76-3.58,41.37,19.66,52.11Z"/><path class="g" d="m1343.03,1190.5c23.23,10.3,53.73,15.62,76.96,33.08,25.8,19.5,37.64,63.12,19.68,117.87-11.93,36.18-34.47,77.06-68.64,120.02-19.85,25-43.37,50.27-70.49,75.23h15.69c65.77-60.25,111.54-122.3,138.35-178.68,31.62-66.6,33.69-121.48,16.63-154.35-13.16-25.23-37.99-39.03-56.26-52.92-31.66-24.01-21.65-77.69,12.57-149.71,22.9-48.25,49.36-104.93,69.14-171.74,21.86-73.87,33.84-155.99,31.4-241.46-4.9-168.23-96.28-337.54-19.39-370.92,30.63-13.17,82.49.89,140.24,32.65v-17.22c-3.08-1.77-6.16-3.52-9.25-5.22-79.98-44.13-159.56-56.21-180.76-27.58-24.78,33.62-.81,96.15,17.57,168.85,21.22,83.98,37.6,175.75,33.91,268.97-3.63,90.67-25.11,175.29-56.35,248.97-27.99,65.95-62.08,120.32-91.3,166.25-43.08,67.68-55.87,121.7-19.69,137.9Z"/><path class="h" d="m1262.94,1227.38c27.73,9.45,63.35,10.74,97.11,21.27,33,10.3,61.13,41.38,55.38,85.03-3.96,29.82-18.78,65.15-44.36,103.5-21.62,32.35-50.44,66.04-86.56,99.52h16.02c27.13-24.96,50.64-50.23,70.49-75.23,34.17-42.96,56.71-83.84,68.64-120.02,17.96-54.76,6.12-98.37-19.68-117.87-23.23-17.46-53.73-22.78-76.96-33.08-36.18-16.2-23.39-70.22,19.69-137.9,29.22-45.93,63.31-100.31,91.3-166.25,31.24-73.68,52.72-158.3,56.35-248.97,3.68-93.22-12.69-184.99-33.91-268.97-18.37-72.71-42.34-135.23-17.57-168.85,21.2-28.63,100.78-16.55,180.76,27.58,3.09,1.7,6.17,3.45,9.25,5.22v-15.73c-27.04-16.05-54.14-29.62-80.94-40.38-75.37-30.24-144.39-19.44-150.42,15.42-8.67,50.99,25.63,120.42,47.87,205.14,24.64,93.89,36.48,194.65,24.19,292.84-11.76,93.62-43.71,178.1-84.3,249.29-36.07,63.26-77.23,113.97-112.36,156.78-28.99,35.33-53.39,63.61-60.3,88.39-5.09,18.27,8.27,35.75,30.31,43.28Z"/><path class="g" d="m1331.34,1536.7h14.98c42.17-38.43,77.76-78.19,106.42-117.73,63.1-87.16,89.73-166.8,94.43-227.86,3.54-46.45-6.53-82.58-15.97-111.39-16.57-50.34-14.72-110.45,2.9-190.57,23.48-107,41.91-239.1,28.82-379.81-6.2-66.78-18.8-126.28-14.15-174.75,3.45-35.46,38.44-59.73,80.3-47.83,6.51,1.86,13.13,4.12,19.83,6.72v-24.83c-30.34-14.93-58.51-23.18-82.92-23.19-36.87.06-54.08,42.41-49.39,89.99,6.06,61.32,22.34,131.8,28.12,208.73,5.89,78.51,1.53,155.88-11.91,227.72-12.35,65.89-31.2,123.41-47.91,173.07-25.63,76.16-31.89,131.27-7.23,167.39,13.75,20.13,31.23,44.72,35.96,79.61,6.35,47.11-7.66,114.15-54.35,191.93-30.12,50.1-72.76,102.36-127.92,152.79Z"/><path class="h" d="m1414.94,1150.75c18.27,13.89,43.1,27.69,56.26,52.92,17.05,32.87,14.99,87.75-16.63,154.35-26.8,56.38-72.57,118.43-138.35,178.68h15.11c55.17-50.43,97.81-102.7,127.92-152.79,46.69-77.78,60.7-144.82,54.35-191.93-4.72-34.89-22.2-59.49-35.96-79.61-24.65-36.12-18.39-91.23,7.23-167.39,16.71-49.66,35.55-107.18,47.91-173.07,13.45-71.84,17.8-149.21,11.91-227.72-5.79-76.92-22.06-147.4-28.12-208.73-4.69-47.58,12.52-89.93,49.39-89.99,24.41.01,52.58,8.26,82.92,23.19v-19.09c-57.75-31.76-109.61-45.82-140.24-32.65-76.89,33.39,14.5,202.69,19.39,370.92,2.44,85.47-9.54,167.59-31.4,241.46-19.79,66.81-46.24,123.48-69.14,171.74-34.22,72.02-44.23,125.7-12.57,149.71Z"/><path class="g" d="m1434.01,1462.32c-21.65,25.22-45.92,50.11-72.59,74.38h15.23c8.8-8.04,17.38-16.15,25.67-24.34,98.17-97.17,155.03-197.4,183.77-283.63,23.46-70.5,28.16-131.19,27.57-181.35-1.01-83.4-5.95-161.75-.97-249.53,5.8-102.35,2.3-214.41,1.07-321.49-.5-45.03.83-86.18,25.14-102.99,2.9-1.99,6.26-3.45,9.99-4.43v-42.34c-28.19-3.87-51.29,3.55-59.08,20.02-15.91,33.83-8.77,83.3-4.55,139.31,9.34,124.51,4,247.3-9.24,352.61-10.57,83.96-8.58,152.17.24,218.35,5.2,39.08,8.1,87.39-4.68,146.11-16.26,74.32-57.08,165.47-137.58,259.32Z"/><path class="h" d="m1452.74,1418.97c-28.66,39.54-64.25,79.3-106.42,117.73h15.1c26.68-24.27,50.94-49.16,72.59-74.38,80.49-93.85,121.32-184.99,137.58-259.32,12.78-58.72,9.88-107.03,4.68-146.11-8.82-66.19-10.81-134.39-.24-218.35,13.24-105.3,18.58-228.1,9.24-352.61-4.22-56.01-11.35-105.48,4.55-139.31,7.79-16.47,30.9-23.88,59.08-20.02v-33.12c-6.7-2.61-13.32-4.86-19.83-6.72-41.86-11.89-76.86,12.37-80.3,47.83-4.65,48.47,7.95,107.97,14.15,174.75,13.09,140.72-5.34,272.81-28.82,379.81-17.62,80.12-19.47,140.22-2.9,190.57,9.45,28.81,19.51,64.94,15.97,111.39-4.7,61.06-31.33,140.7-94.43,227.86Z"/><path class="g" d="m1406.71,1536.7c75.46-69.85,132.71-144.1,173.2-215.88,32.82-58.32,54.55-114.16,68.98-166V487.17c-9.32,87.48-1.01,186.92-2.38,283.98-1.3,91.65,5.32,181.43-2.78,282.63-4.93,61.3-18.49,133.81-54.33,214.57-38.22,86.01-101.85,180.09-197.68,268.35h14.99Z"/><path class="h" d="m1391.72,1536.7c95.84-88.26,159.46-182.34,197.68-268.35,35.83-80.76,49.4-153.27,54.33-214.57,8.1-101.2,1.49-190.98,2.78-282.63,1.37-97.05-6.94-196.5,2.38-283.98v-118.22c-3.74.98-7.09,2.44-9.99,4.43-24.31,16.8-25.65,57.95-25.14,102.99,1.23,107.07,4.73,219.14-1.07,321.49-4.98,87.77-.04,166.12.97,249.53.59,50.16-4.11,110.85-27.57,181.35-28.74,86.23-85.6,186.47-183.77,283.63-8.29,8.2-16.87,16.31-25.67,24.34h15.07Z"/><path class="g" d="m1437.78,1536.7c28.69-26.68,55.1-54.11,79.04-82.01,57.98-67.59,100.73-136.11,132.07-201.8v-41.05c-21.73,55.16-51.64,113.21-92.84,172.16-36.25,51.81-81.01,103.46-134.09,152.71h15.82Z"/><path class="h" d="m1421.96,1536.7c53.08-49.24,97.84-100.89,134.09-152.71,41.2-58.95,71.12-117,92.84-172.16v-57.01c-14.43,51.83-36.16,107.68-68.98,166-40.5,71.78-97.74,146.03-173.2,215.88h15.25Z"/><path class="g" d="m1471.12,1536.7c69.27-65.38,124.64-134.18,167.58-201.78,3.48-5.48,6.87-10.95,10.19-16.41v-31.15c-43.73,80.01-104.36,163.01-186.55,241.7-2.67,2.55-5.37,5.1-8.08,7.64h16.86Z"/><path class="h" d="m1454.26,1536.7c2.71-2.54,5.41-5.08,8.08-7.64,82.2-78.69,142.83-161.7,186.55-241.7v-34.47c-31.34,65.69-74.1,134.2-132.07,201.8-23.95,27.9-50.35,55.34-79.04,82.01h16.48Z"/><path class="g" d="m1508.26,1536.7c7.77-7.31,15.39-14.68,22.83-22.13,45.87-45.85,84.68-92.13,117.8-137.37v-29.21c-16.89,25.26-35.5,50.8-56.11,76.45-30.97,38.5-66.28,76.09-105.39,112.26h20.87Z"/><path class="h" d="m1487.39,1536.7c39.11-36.17,74.43-73.76,105.39-112.26,20.6-25.64,39.22-51.19,56.11-76.45v-29.49c-3.32,5.46-6.71,10.93-10.19,16.41-42.95,67.61-98.32,136.4-167.58,201.78h16.27Z"/></g></g><g><rect class="f" x="860.07" y="550" width="48.83" height="394.64"/><g><rect class="f" x="561.23" y="550" width="48.84" height="394.64"/><path class="f" d="m473.75,930.69c-74.85,0-135.7-60.84-135.7-135.68s60.85-135.69,135.7-135.69,135.68,60.84,135.68,135.69-60.88,135.68-135.68,135.68Zm0-222.54c-47.91,0-86.87,38.95-86.87,86.86s38.96,86.84,86.87,86.84,86.84-38.95,86.84-86.84-38.96-86.86-86.84-86.86Z"/><rect class="f" x="950.15" y="671.64" width="48.85" height="273"/><path class="f" d="m772.58,930.69c-74.84,0-135.69-60.84-135.69-135.68s60.85-135.69,135.69-135.69,135.68,60.84,135.68,135.69-60.9,135.68-135.68,135.68Zm0-222.54c-47.89,0-86.84,38.95-86.84,86.86s38.95,86.84,86.84,86.84,86.86-38.95,86.86-86.84-39.02-86.86-86.86-86.86Z"/><rect class="f" x="976.8" y="723.51" width="67.13" height="48.83"/><rect class="f" x="1086.31" y="671.83" width="69.78" height="48.83"/><rect class="f" x="1042.14" y="697.93" width="44.17" height="48.83"/><rect class="f" x="492.03" y="549.48" width="48.85" height="53.42"/><rect class="f" x="792.03" y="549.48" width="48.86" height="53.42"/><rect class="f" x="1046.39" y="890.53" width="48.84" height="53.44"/></g></g></g></svg>